<svg width="1600" height="1200" viewBox="0 0 1600 1200" fill="none" xmlns="http://www.w3.org/2000/svg"><rect width="1600" height="1200" fill="#F7FAFF"/><circle cx="1320" cy="150" r="250" fill="#45469D" fill-opacity="0.08"/><circle cx="1250" cy="220" r="120" fill="#08B05F" fill-opacity="0.11"/><circle cx="190" cy="1050" r="200" fill="#08B05F" fill-opacity="0.08"/><g opacity="0.95"><rect x="140" y="170" width="380" height="250" rx="30" fill="white" stroke="#DCE5FF" stroke-width="2"/><rect x="178" y="215" width="160" height="22" rx="11" fill="#45469D" fill-opacity="0.15"/><rect x="178" y="255" width="110" height="14" rx="7" fill="#08B05F" fill-opacity="0.26"/><rect x="178" y="286" width="220" height="14" rx="7" fill="#45469D" fill-opacity="0.08"/><rect x="178" y="317" width="180" height="14" rx="7" fill="#45469D" fill-opacity="0.08"/><rect x="178" y="350" width="80" height="14" rx="7" fill="#45469D" fill-opacity="0.08"/><rect x="370" y="232" width="106" height="106" rx="20" fill="#F4F7FF"/><path d="M405 270H440" stroke="#45469D" stroke-width="11" stroke-linecap="round"/><path d="M405 296H454" stroke="#08B05F" stroke-width="11" stroke-linecap="round"/><path d="M405 322H432" stroke="#45469D" stroke-opacity="0.24" stroke-width="11" stroke-linecap="round"/></g><g opacity="0.95"><rect x="980" y="190" width="430" height="260" rx="36" fill="white" stroke="#DDE5FF" stroke-width="2"/><rect x="1022" y="232" width="220" height="24" rx="12" fill="#45469D" fill-opacity="0.14"/><path d="M1040 370C1105 312 1150 348 1195 326C1240 304 1290 238 1360 270" stroke="#45469D" stroke-width="10" stroke-linecap="round"/><path d="M1040 395C1090 390 1130 300 1175 316C1220 332 1265 382 1325 324" stroke="#08B05F" stroke-width="10" stroke-linecap="round"/><circle cx="1360" cy="270" r="8" fill="#45469D"/><circle cx="1325" cy="324" r="8" fill="#08B05F"/><rect x="1038" y="418" width="74" height="12" rx="6" fill="#08B05F" fill-opacity="0.35"/><rect x="1126" y="418" width="114" height="12" rx="6" fill="#45469D" fill-opacity="0.14"/></g><g opacity="0.95"><rect x="355" y="640" width="280" height="230" rx="28" fill="white" stroke="#E0E8FF" stroke-width="2"/><rect x="398" y="708" width="48" height="110" rx="12" fill="#08B05F" fill-opacity="0.42"/><rect x="464" y="670" width="48" height="148" rx="12" fill="#45469D" fill-opacity="0.22"/><rect x="530" y="624" width="48" height="194" rx="12" fill="#08B05F" fill-opacity="0.74"/><rect x="398" y="668" width="186" height="16" rx="8" fill="#45469D" fill-opacity="0.12"/></g><g opacity="0.95"><rect x="912" y="650" width="350" height="240" rx="30" fill="white" stroke="#DCE6FF" stroke-width="2"/><circle cx="1016" cy="770" r="62" fill="#F4F7FF"/><path d="M1016 708A62 62 0 0 1 1070 741L1016 770Z" fill="#08B05F" fill-opacity="0.7"/><path d="M1016 770L1070 741A62 62 0 0 1 1042 824L1016 770Z" fill="#45469D" fill-opacity="0.65"/><path d="M1016 770L1042 824A62 62 0 0 1 954 802L1016 770Z" fill="#08B05F" fill-opacity="0.32"/><path d="M1016 770L954 802A62 62 0 0 1 1016 708V770Z" fill="#45469D" fill-opacity="0.14"/><rect x="1105" y="728" width="110" height="14" rx="7" fill="#45469D" fill-opacity="0.18"/><rect x="1105" y="760" width="90" height="14" rx="7" fill="#08B05F" fill-opacity="0.38"/><rect x="1105" y="792" width="130" height="14" rx="7" fill="#45469D" fill-opacity="0.11"/></g><path d="M70 1010C240 920 390 930 528 982C701 1048 837 1066 986 1020C1146 970 1298 944 1520 1048" stroke="#45469D" stroke-opacity="0.14" stroke-width="10" stroke-linecap="round"/></svg>