<svg width="1600" height="1000" viewBox="0 0 1600 1000" fill="none" xmlns="http://www.w3.org/2000/svg"><rect width="1600" height="1000" fill="#FAFCFF"/><circle cx="1360" cy="144" r="230" fill="#45469D" fill-opacity="0.08"/><circle cx="230" cy="874" r="200" fill="#08B05F" fill-opacity="0.07"/><rect x="170" y="170" width="780" height="560" rx="40" fill="white" stroke="#DFE7FF" stroke-width="2"/><rect x="235" y="236" width="240" height="22" rx="11" fill="#45469D" fill-opacity="0.14"/><rect x="235" y="278" width="150" height="12" rx="6" fill="#08B05F" fill-opacity="0.34"/><rect x="235" y="330" width="650" height="14" rx="7" fill="#45469D" fill-opacity="0.08"/><rect x="235" y="362" width="650" height="14" rx="7" fill="#45469D" fill-opacity="0.08"/><rect x="235" y="394" width="520" height="14" rx="7" fill="#45469D" fill-opacity="0.08"/><rect x="235" y="455" width="300" height="170" rx="24" fill="#F5F8FF"/><path d="M285 575L333 535L382 500L431 528L479 468" stroke="#08B05F" stroke-width="10" stroke-linecap="round"/><path d="M285 596L333 582L382 551L431 563L479 532" stroke="#45469D" stroke-width="10" stroke-linecap="round"/><rect x="1008" y="246" width="420" height="280" rx="34" fill="white" stroke="#DFE7FF" stroke-width="2"/><rect x="1065" y="300" width="220" height="22" rx="11" fill="#45469D" fill-opacity="0.14"/><rect x="1065" y="340" width="140" height="12" rx="6" fill="#08B05F" fill-opacity="0.32"/><circle cx="1134" cy="420" r="66" fill="#F3F7FF"/><path d="M1134 354A66 66 0 0 1 1190 388L1134 420Z" fill="#08B05F" fill-opacity="0.72"/><path d="M1134 420L1190 388A66 66 0 0 1 1154 477L1134 420Z" fill="#45469D" fill-opacity="0.62"/><path d="M1134 420L1154 477A66 66 0 0 1 1076 470L1134 420Z" fill="#08B05F" fill-opacity="0.30"/><path d="M1134 420L1076 470A66 66 0 0 1 1134 354V420Z" fill="#45469D" fill-opacity="0.16"/><rect x="1235" y="392" width="130" height="14" rx="7" fill="#45469D" fill-opacity="0.16"/><rect x="1235" y="426" width="100" height="14" rx="7" fill="#08B05F" fill-opacity="0.38"/><rect x="1235" y="460" width="148" height="14" rx="7" fill="#45469D" fill-opacity="0.11"/><path d="M70 885C270 790 430 796 615 862C766 916 933 918 1096 857C1267 793 1374 798 1531 871" stroke="#45469D" stroke-opacity="0.11" stroke-width="10" stroke-linecap="round"/></svg>