<svg width="1600" height="1000" viewBox="0 0 1600 1000" fill="none" xmlns="http://www.w3.org/2000/svg"><rect width="1600" height="1000" fill="#F8FBFF"/><circle cx="1380" cy="160" r="230" fill="#45469D" fill-opacity="0.08"/><circle cx="210" cy="860" r="180" fill="#08B05F" fill-opacity="0.07"/><rect x="120" y="140" width="1360" height="720" rx="42" fill="white" stroke="#DFE7FF" stroke-width="2"/><rect x="188" y="210" width="260" height="22" rx="11" fill="#45469D" fill-opacity="0.14"/><rect x="188" y="252" width="160" height="12" rx="6" fill="#08B05F" fill-opacity="0.34"/><rect x="188" y="300" width="420" height="16" rx="8" fill="#45469D" fill-opacity="0.08"/><circle cx="270" cy="472" r="44" fill="#45469D" fill-opacity="0.16"/><circle cx="370" cy="472" r="44" fill="#08B05F" fill-opacity="0.18"/><circle cx="320" cy="545" r="64" fill="#EEF3FF"/><path d="M211 618C225 560 415 560 429 618" stroke="#45469D" stroke-width="14" stroke-linecap="round" fill="none"/><rect x="890" y="236" width="320" height="240" rx="28" fill="#F7FAFF"/><rect x="942" y="290" width="140" height="18" rx="9" fill="#45469D" fill-opacity="0.15"/><rect x="942" y="330" width="210" height="12" rx="6" fill="#45469D" fill-opacity="0.08"/><rect x="942" y="360" width="166" height="12" rx="6" fill="#45469D" fill-opacity="0.08"/><rect x="1050" y="540" width="260" height="220" rx="30" fill="#F6FAFF"/><rect x="1106" y="594" width="148" height="18" rx="9" fill="#45469D" fill-opacity="0.13"/><rect x="1106" y="634" width="42" height="42" rx="10" fill="#08B05F" fill-opacity="0.32"/><rect x="1160" y="634" width="42" height="42" rx="10" fill="#45469D" fill-opacity="0.14"/><rect x="1214" y="634" width="42" height="42" rx="10" fill="#08B05F" fill-opacity="0.24"/><path d="M86 892C260 822 406 809 556 862C718 918 882 932 1036 882C1196 830 1328 819 1518 896" stroke="#45469D" stroke-opacity="0.11" stroke-width="10" stroke-linecap="round"/></svg>