<svg width="1600" height="1000" viewBox="0 0 1600 1000" fill="none" xmlns="http://www.w3.org/2000/svg"><rect width="1600" height="1000" fill="#F8FBFF"/><circle cx="1380" cy="160" r="230" fill="#45469D" fill-opacity="0.08"/><circle cx="210" cy="860" r="180" fill="#08B05F" fill-opacity="0.07"/><rect x="120" y="140" width="1360" height="720" rx="42" fill="white" stroke="#DFE7FF" stroke-width="2"/><rect x="188" y="210" width="260" height="22" rx="11" fill="#45469D" fill-opacity="0.14"/><rect x="188" y="252" width="160" height="12" rx="6" fill="#08B05F" fill-opacity="0.34"/><rect x="188" y="300" width="420" height="16" rx="8" fill="#45469D" fill-opacity="0.08"/><circle cx="320" cy="470" r="118" fill="#F5F8FF"/><path d="M320 394V546" stroke="#45469D" stroke-width="24" stroke-linecap="round"/><path d="M260 430C278 404 306 392 344 392C388 392 417 412 417 443C417 520 260 476 260 548C260 585 297 608 352 608C397 608 424 591 442 565" stroke="#08B05F" stroke-width="20" stroke-linecap="round" fill="none"/><rect x="860" y="238" width="310" height="220" rx="28" fill="#F7FAFF"/><rect x="920" y="296" width="150" height="18" rx="9" fill="#45469D" fill-opacity="0.15"/><rect x="920" y="335" width="200" height="12" rx="6" fill="#45469D" fill-opacity="0.08"/><rect x="920" y="365" width="160" height="12" rx="6" fill="#45469D" fill-opacity="0.08"/><rect x="1045" y="548" width="260" height="210" rx="30" fill="#F5F8FF"/><circle cx="1120" cy="654" r="56" fill="#EEF3FF"/><path d="M1120 598A56 56 0 0 1 1166 624L1120 654Z" fill="#08B05F" fill-opacity="0.7"/><path d="M1120 654L1166 624A56 56 0 0 1 1137 706L1120 654Z" fill="#45469D" fill-opacity="0.6"/><path d="M1120 654L1137 706A56 56 0 0 1 1068 698L1120 654Z" fill="#08B05F" fill-opacity="0.28"/><path d="M1120 654L1068 698A56 56 0 0 1 1120 598V654Z" fill="#45469D" fill-opacity="0.16"/><path d="M86 892C260 822 406 809 556 862C718 918 882 932 1036 882C1196 830 1328 819 1518 896" stroke="#45469D" stroke-opacity="0.11" stroke-width="10" stroke-linecap="round"/></svg>