<svg width="1600" height="1000" viewBox="0 0 1600 1000" fill="none" xmlns="http://www.w3.org/2000/svg"><rect width="1600" height="1000" fill="#F8FBFF"/><circle cx="1380" cy="160" r="230" fill="#45469D" fill-opacity="0.08"/><circle cx="210" cy="860" r="180" fill="#08B05F" fill-opacity="0.07"/><rect x="120" y="140" width="1360" height="720" rx="42" fill="white" stroke="#DFE7FF" stroke-width="2"/><rect x="188" y="210" width="260" height="22" rx="11" fill="#45469D" fill-opacity="0.14"/><rect x="188" y="252" width="160" height="12" rx="6" fill="#08B05F" fill-opacity="0.34"/><rect x="188" y="300" width="420" height="16" rx="8" fill="#45469D" fill-opacity="0.08"/><rect x="180" y="250" width="480" height="300" rx="30" fill="#F7FAFF"/><path d="M240 486L320 422L398 452L470 372L598 284" stroke="#45469D" stroke-width="12" stroke-linecap="round"/><path d="M240 520L320 502L398 438L470 452L598 410" stroke="#08B05F" stroke-width="12" stroke-linecap="round"/><rect x="920" y="255" width="320" height="250" rx="30" fill="#F5F8FF"/><circle cx="1010" cy="382" r="62" fill="#EEF3FF"/><path d="M1010 320A62 62 0 0 1 1064 353L1010 382Z" fill="#08B05F" fill-opacity="0.72"/><path d="M1010 382L1064 353A62 62 0 0 1 1037 436L1010 382Z" fill="#45469D" fill-opacity="0.64"/><path d="M1010 382L1037 436A62 62 0 0 1 948 414L1010 382Z" fill="#08B05F" fill-opacity="0.3"/><path d="M1010 382L948 414A62 62 0 0 1 1010 320V382Z" fill="#45469D" fill-opacity="0.16"/><rect x="1020" y="560" width="300" height="210" rx="30" fill="#F8FBFF"/><rect x="1080" y="650" width="50" height="74" rx="12" fill="#08B05F" fill-opacity="0.42"/><rect x="1146" y="620" width="50" height="104" rx="12" fill="#45469D" fill-opacity="0.22"/><rect x="1212" y="582" width="50" height="142" rx="12" fill="#08B05F" fill-opacity="0.74"/><path d="M86 892C260 822 406 809 556 862C718 918 882 932 1036 882C1196 830 1328 819 1518 896" stroke="#45469D" stroke-opacity="0.11" stroke-width="10" stroke-linecap="round"/></svg>