<svg width="1600" height="1000" viewBox="0 0 1600 1000" fill="none" xmlns="http://www.w3.org/2000/svg"><rect width="1600" height="1000" fill="#F8FBFF"/><circle cx="1380" cy="160" r="230" fill="#45469D" fill-opacity="0.08"/><circle cx="210" cy="860" r="180" fill="#08B05F" fill-opacity="0.07"/><rect x="120" y="140" width="1360" height="720" rx="42" fill="white" stroke="#DFE7FF" stroke-width="2"/><rect x="188" y="210" width="260" height="22" rx="11" fill="#45469D" fill-opacity="0.14"/><rect x="188" y="252" width="160" height="12" rx="6" fill="#08B05F" fill-opacity="0.34"/><rect x="188" y="300" width="420" height="16" rx="8" fill="#45469D" fill-opacity="0.08"/><path d="M310 384L410 422V510C410 589 353 642 310 660C267 642 210 589 210 510V422L310 384Z" fill="#F1F6FF" stroke="#45469D" stroke-width="12"/><path d="M263 511L294 542L357 469" stroke="#08B05F" stroke-width="18" stroke-linecap="round" stroke-linejoin="round"/><rect x="880" y="240" width="320" height="240" rx="30" fill="#F7FAFF"/><rect x="940" y="295" width="170" height="18" rx="9" fill="#45469D" fill-opacity="0.15"/><rect x="940" y="335" width="210" height="12" rx="6" fill="#45469D" fill-opacity="0.08"/><rect x="940" y="365" width="185" height="12" rx="6" fill="#45469D" fill-opacity="0.08"/><rect x="1060" y="550" width="260" height="200" rx="30" fill="#F3F8FF"/><circle cx="1126" cy="626" r="42" fill="#08B05F" fill-opacity="0.16"/><path d="M1104 626L1121 643L1154 610" stroke="#08B05F" stroke-width="12" stroke-linecap="round" stroke-linejoin="round"/><rect x="1180" y="604" width="92" height="14" rx="7" fill="#45469D" fill-opacity="0.14"/><rect x="1180" y="636" width="76" height="14" rx="7" fill="#08B05F" fill-opacity="0.36"/><path d="M86 892C260 822 406 809 556 862C718 918 882 932 1036 882C1196 830 1328 819 1518 896" stroke="#45469D" stroke-opacity="0.11" stroke-width="10" stroke-linecap="round"/></svg>