<svg width="1600" height="1000" viewBox="0 0 1600 1000" fill="none" xmlns="http://www.w3.org/2000/svg"><rect width="1600" height="1000" fill="#F8FBFF"/><circle cx="1380" cy="160" r="230" fill="#45469D" fill-opacity="0.08"/><circle cx="210" cy="860" r="180" fill="#08B05F" fill-opacity="0.07"/><rect x="120" y="140" width="1360" height="720" rx="42" fill="white" stroke="#DFE7FF" stroke-width="2"/><rect x="188" y="210" width="260" height="22" rx="11" fill="#45469D" fill-opacity="0.14"/><rect x="188" y="252" width="160" height="12" rx="6" fill="#08B05F" fill-opacity="0.34"/><rect x="188" y="300" width="420" height="16" rx="8" fill="#45469D" fill-opacity="0.08"/><rect x="180" y="250" width="460" height="300" rx="30" fill="#F7FAFF"/><rect x="230" y="300" width="360" height="190" rx="24" fill="white" stroke="#DDE7FF" stroke-width="2"/><path d="M285 432L352 380L420 408L486 340L544 374" stroke="#08B05F" stroke-width="10" stroke-linecap="round"/><rect x="360" y="520" width="96" height="14" rx="7" fill="#45469D" fill-opacity="0.14"/><circle cx="1030" cy="360" r="86" fill="#EEF3FF"/><g fill="#45469D" fill-opacity="0.18"><path d="M1030 300L1046 322L1072 318L1074 346L1098 358L1082 382L1098 406L1074 418L1072 446L1046 442L1030 464L1014 442L988 446L986 418L962 406L978 382L962 358L986 346L988 318L1014 322L1030 300Z"/></g><circle cx="1030" cy="382" r="38" fill="white" stroke="#08B05F" stroke-width="12"/><rect x="1060" y="562" width="270" height="200" rx="30" fill="#F7FAFF"/><path d="M1120 664H1270" stroke="#45469D" stroke-width="8" stroke-linecap="round" stroke-opacity="0.16"/><path d="M1134 624L1176 664L1134 704" stroke="#08B05F" stroke-width="12" stroke-linecap="round" stroke-linejoin="round"/><path d="M1256 624L1214 664L1256 704" stroke="#45469D" stroke-width="12" stroke-linecap="round" stroke-linejoin="round"/><path d="M86 892C260 822 406 809 556 862C718 918 882 932 1036 882C1196 830 1328 819 1518 896" stroke="#45469D" stroke-opacity="0.11" stroke-width="10" stroke-linecap="round"/></svg>