<svg width="1600" height="1000" viewBox="0 0 1600 1000" fill="none" xmlns="http://www.w3.org/2000/svg"><rect width="1600" height="1000" fill="#F8FBFF"/><circle cx="1380" cy="160" r="230" fill="#45469D" fill-opacity="0.08"/><circle cx="210" cy="860" r="180" fill="#08B05F" fill-opacity="0.07"/><rect x="120" y="140" width="1360" height="720" rx="42" fill="white" stroke="#DFE7FF" stroke-width="2"/><rect x="188" y="210" width="260" height="22" rx="11" fill="#45469D" fill-opacity="0.14"/><rect x="188" y="252" width="160" height="12" rx="6" fill="#08B05F" fill-opacity="0.34"/><rect x="188" y="300" width="420" height="16" rx="8" fill="#45469D" fill-opacity="0.08"/><rect x="180" y="360" width="430" height="270" rx="28" fill="#F7FAFF"/><rect x="230" y="405" width="160" height="18" rx="9" fill="#45469D" fill-opacity="0.15"/><rect x="230" y="443" width="280" height="12" rx="6" fill="#45469D" fill-opacity="0.08"/><rect x="230" y="473" width="220" height="12" rx="6" fill="#45469D" fill-opacity="0.08"/><rect x="230" y="503" width="120" height="12" rx="6" fill="#45469D" fill-opacity="0.08"/><rect x="850" y="230" width="300" height="220" rx="28" fill="#F5F8FF"/><rect x="920" y="280" width="46" height="46" rx="10" fill="#45469D" fill-opacity="0.18"/><rect x="982" y="280" width="46" height="46" rx="10" fill="#08B05F" fill-opacity="0.25"/><rect x="1044" y="280" width="46" height="46" rx="10" fill="#45469D" fill-opacity="0.10"/><rect x="920" y="342" width="46" height="46" rx="10" fill="#08B05F" fill-opacity="0.18"/><rect x="982" y="342" width="46" height="46" rx="10" fill="#45469D" fill-opacity="0.12"/><rect x="1044" y="342" width="46" height="46" rx="10" fill="#08B05F" fill-opacity="0.35"/><rect x="1030" y="530" width="280" height="220" rx="28" fill="#F7FAFF"/><rect x="1086" y="642" width="48" height="70" rx="12" fill="#08B05F" fill-opacity="0.44"/><rect x="1152" y="600" width="48" height="112" rx="12" fill="#45469D" fill-opacity="0.20"/><rect x="1218" y="560" width="48" height="152" rx="12" fill="#08B05F" fill-opacity="0.76"/><path d="M86 892C260 822 406 809 556 862C718 918 882 932 1036 882C1196 830 1328 819 1518 896" stroke="#45469D" stroke-opacity="0.11" stroke-width="10" stroke-linecap="round"/></svg>