<svg width="1600" height="1000" viewBox="0 0 1600 1000" fill="none" xmlns="http://www.w3.org/2000/svg"><rect width="1600" height="1000" fill="#F8FBFF"/><circle cx="1380" cy="160" r="230" fill="#45469D" fill-opacity="0.08"/><circle cx="210" cy="860" r="180" fill="#08B05F" fill-opacity="0.07"/><rect x="120" y="140" width="1360" height="720" rx="42" fill="white" stroke="#DFE7FF" stroke-width="2"/><rect x="188" y="210" width="260" height="22" rx="11" fill="#45469D" fill-opacity="0.14"/><rect x="188" y="252" width="160" height="12" rx="6" fill="#08B05F" fill-opacity="0.34"/><rect x="188" y="300" width="420" height="16" rx="8" fill="#45469D" fill-opacity="0.08"/><rect x="190" y="250" width="280" height="360" rx="28" fill="#F6FAFF"/><rect x="250" y="300" width="160" height="18" rx="9" fill="#45469D" fill-opacity="0.15"/><rect x="250" y="352" width="18" height="18" rx="5" fill="#08B05F" fill-opacity="0.36"/><rect x="286" y="354" width="120" height="12" rx="6" fill="#45469D" fill-opacity="0.08"/><rect x="250" y="394" width="18" height="18" rx="5" fill="#08B05F" fill-opacity="0.36"/><rect x="286" y="396" width="140" height="12" rx="6" fill="#45469D" fill-opacity="0.08"/><rect x="250" y="436" width="18" height="18" rx="5" fill="#08B05F" fill-opacity="0.36"/><rect x="286" y="438" width="100" height="12" rx="6" fill="#45469D" fill-opacity="0.08"/><circle cx="1042" cy="360" r="84" fill="#EEF3FF"/><circle cx="1042" cy="360" r="48" stroke="#45469D" stroke-width="14"/><path d="M1080 398L1144 460" stroke="#08B05F" stroke-width="14" stroke-linecap="round"/><rect x="1040" y="548" width="280" height="210" rx="30" fill="#F7FAFF"/><rect x="1100" y="610" width="130" height="16" rx="8" fill="#45469D" fill-opacity="0.14"/><rect x="1100" y="648" width="158" height="12" rx="6" fill="#08B05F" fill-opacity="0.38"/><rect x="1100" y="680" width="110" height="12" rx="6" fill="#45469D" fill-opacity="0.10"/><path d="M86 892C260 822 406 809 556 862C718 918 882 932 1036 882C1196 830 1328 819 1518 896" stroke="#45469D" stroke-opacity="0.11" stroke-width="10" stroke-linecap="round"/></svg>