<svg width="1600" height="1000" viewBox="0 0 1600 1000" fill="none" xmlns="http://www.w3.org/2000/svg"><rect width="1600" height="1000" fill="#F8FBFF"/><circle cx="1380" cy="160" r="230" fill="#45469D" fill-opacity="0.08"/><circle cx="210" cy="860" r="180" fill="#08B05F" fill-opacity="0.07"/><rect x="120" y="140" width="1360" height="720" rx="42" fill="white" stroke="#DFE7FF" stroke-width="2"/><rect x="188" y="210" width="260" height="22" rx="11" fill="#45469D" fill-opacity="0.14"/><rect x="188" y="252" width="160" height="12" rx="6" fill="#08B05F" fill-opacity="0.34"/><rect x="188" y="300" width="420" height="16" rx="8" fill="#45469D" fill-opacity="0.08"/><circle cx="310" cy="500" r="112" fill="#F2F6FF"/><path d="M360 470C340 433 296 420 262 438C228 456 212 494 222 530" stroke="#45469D" stroke-width="16" stroke-linecap="round" fill="none"/><path d="M231 462L219 530L287 518" stroke="#45469D" stroke-width="16" stroke-linecap="round" stroke-linejoin="round"/><path d="M260 554C279 585 315 597 347 587C384 575 409 536 404 494" stroke="#08B05F" stroke-width="16" stroke-linecap="round" fill="none"/><path d="M397 560L407 494L341 507" stroke="#08B05F" stroke-width="16" stroke-linecap="round" stroke-linejoin="round"/><rect x="880" y="260" width="310" height="215" rx="30" fill="#F7FAFF"/><path d="M920 320H1042L1072 350H1150V426H920V320Z" fill="#EAF0FF" stroke="#45469D" stroke-opacity="0.18" stroke-width="2"/><rect x="1030" y="540" width="290" height="210" rx="30" fill="#F6FAFF"/><path d="M1080 690H1270" stroke="#45469D" stroke-width="8" stroke-linecap="round" stroke-opacity="0.16"/><circle cx="1116" cy="690" r="12" fill="#45469D"/><circle cx="1180" cy="690" r="12" fill="#08B05F"/><circle cx="1248" cy="690" r="12" fill="#45469D" fill-opacity="0.5"/><path d="M1116 690V624" stroke="#45469D" stroke-width="4" stroke-opacity="0.2" stroke-dasharray="8 8"/><path d="M1180 690V594" stroke="#08B05F" stroke-width="4" stroke-opacity="0.2" stroke-dasharray="8 8"/><path d="M86 892C260 822 406 809 556 862C718 918 882 932 1036 882C1196 830 1328 819 1518 896" stroke="#45469D" stroke-opacity="0.11" stroke-width="10" stroke-linecap="round"/></svg>