<svg width="1600" height="1000" viewBox="0 0 1600 1000" fill="none" xmlns="http://www.w3.org/2000/svg"><rect width="1600" height="1000" fill="#F8FBFF"/><circle cx="1400" cy="150" r="220" fill="#45469D" fill-opacity="0.08"/><circle cx="180" cy="140" r="150" fill="#08B05F" fill-opacity="0.08"/><rect x="104" y="186" width="1390" height="640" rx="42" fill="white" stroke="#DEE7FF" stroke-width="2"/><rect x="180" y="250" width="180" height="18" rx="9" fill="#45469D" fill-opacity="0.14"/><rect x="180" y="285" width="120" height="12" rx="6" fill="#08B05F" fill-opacity="0.3"/><g><circle cx="330" cy="505" r="76" fill="#EEF3FF"/><circle cx="330" cy="476" r="28" fill="#45469D" fill-opacity="0.20"/><path d="M268 572C284 528 376 528 392 572V596H268V572Z" fill="#45469D" fill-opacity="0.16"/></g><g><circle cx="536" cy="505" r="76" fill="#F0FFF7"/><circle cx="536" cy="476" r="28" fill="#08B05F" fill-opacity="0.22"/><path d="M474 572C490 528 582 528 598 572V596H474V572Z" fill="#08B05F" fill-opacity="0.18"/></g><g><circle cx="742" cy="505" r="76" fill="#EEF3FF"/><circle cx="742" cy="476" r="28" fill="#45469D" fill-opacity="0.20"/><path d="M680 572C696 528 788 528 804 572V596H680V572Z" fill="#45469D" fill-opacity="0.16"/></g><rect x="905" y="390" width="470" height="250" rx="28" fill="#F8FAFF"/><rect x="960" y="444" width="210" height="18" rx="9" fill="#45469D" fill-opacity="0.15"/><rect x="960" y="482" width="140" height="12" rx="6" fill="#08B05F" fill-opacity="0.34"/><rect x="960" y="516" width="290" height="12" rx="6" fill="#45469D" fill-opacity="0.10"/><rect x="960" y="550" width="250" height="12" rx="6" fill="#45469D" fill-opacity="0.10"/><rect x="960" y="584" width="182" height="12" rx="6" fill="#45469D" fill-opacity="0.10"/><path d="M110 875C250 812 410 792 583 841C754 889 883 904 1052 851C1188 808 1330 809 1492 875" stroke="#45469D" stroke-opacity="0.11" stroke-width="10" stroke-linecap="round"/></svg>