<svg xmlns="http://www.w3.org/2000/svg" width="1200" height="800" viewBox="0 0 1200 800"><defs><linearGradient id="bg" x1="0" y1="0" x2="1" y2="1"><stop offset="0" stop-color="#eef5ff"/><stop offset="1" stop-color="#f3fcf8"/></linearGradient><linearGradient id="card" x1="0" y1="0" x2="1" y2="1"><stop offset="0" stop-color="#123b8b"/><stop offset="1" stop-color="#1ca768"/></linearGradient><filter id="shadow"><feDropShadow dx="0" dy="14" stdDeviation="20" flood-color="#0f2f6c" flood-opacity="0.16"/></filter></defs><rect width="1200" height="800" rx="34" fill="url(#bg)"/><rect x="50" y="52" width="1100" height="120" rx="28" fill="url(#card)" filter="url(#shadow)"/><text x="600" y="110" text-anchor="middle" font-size="40" font-weight="800" fill="#fff">四步工作方法</text><text x="600" y="148" text-anchor="middle" font-size="22" fill="#dcecff">ALL FINANCE</text><path d="M225 430 C295 370 330 340 350 325" fill="none" stroke="#87b6e6" stroke-width="10" stroke-linecap="round"/><path d="M343 325 l25 -2 -12 20" fill="#87b6e6"/><path d="M495 300 C590 300 610 300 685 300" fill="none" stroke="#87b6e6" stroke-width="10" stroke-linecap="round"/><path d="M678 300 l-15 -12 28 12 -28 12" fill="#87b6e6"/><path d="M845 325 C880 345 930 380 965 430" fill="none" stroke="#87b6e6" stroke-width="10" stroke-linecap="round"/><path d="M962 420 l18 17 -24 2" fill="#87b6e6"/><circle cx="150" cy="440" r="86" fill="white" opacity="0.13"/><circle cx="150" cy="440" r="74" fill="white" opacity="0.97"/><circle cx="150" cy="440" r="64" fill="#f4f8ff"/><circle cx="150" cy="440" r="54" fill="#123b8b" opacity="0.12"/><text x="150" y="434" text-anchor="middle" font-size="28" font-weight="800" fill="#123b8b">1</text><text x="150" y="466" text-anchor="middle" font-size="22" font-weight="700" fill="#244366">诊断</text><circle cx="420" cy="300" r="86" fill="white" opacity="0.13"/><circle cx="420" cy="300" r="74" fill="white" opacity="0.97"/><circle cx="420" cy="300" r="64" fill="#f4f8ff"/><circle cx="420" cy="300" r="54" fill="#16a66a" opacity="0.12"/><text x="420" y="294" text-anchor="middle" font-size="28" font-weight="800" fill="#123b8b">2</text><text x="420" y="326" text-anchor="middle" font-size="22" font-weight="700" fill="#244366">计划</text><circle cx="770" cy="300" r="86" fill="white" opacity="0.13"/><circle cx="770" cy="300" r="74" fill="white" opacity="0.97"/><circle cx="770" cy="300" r="64" fill="#f4f8ff"/><circle cx="770" cy="300" r="54" fill="#1b77d2" opacity="0.12"/><text x="770" y="294" text-anchor="middle" font-size="28" font-weight="800" fill="#123b8b">3</text><text x="770" y="326" text-anchor="middle" font-size="22" font-weight="700" fill="#244366">执行</text><circle cx="1040" cy="440" r="86" fill="white" opacity="0.13"/><circle cx="1040" cy="440" r="74" fill="white" opacity="0.97"/><circle cx="1040" cy="440" r="64" fill="#f4f8ff"/><circle cx="1040" cy="440" r="54" fill="#0b3b8d" opacity="0.12"/><text x="1040" y="434" text-anchor="middle" font-size="28" font-weight="800" fill="#123b8b">4</text><text x="1040" y="466" text-anchor="middle" font-size="22" font-weight="700" fill="#244366">结果</text><rect x="110" y="620" width="980" height="96" rx="24" fill="#ffffff" filter="url(#shadow)"/><text x="600" y="675" text-anchor="middle" font-size="26" font-weight="700" fill="#29415f">ALL FINANCE — professional financial services</text></svg>