<svg xmlns="http://www.w3.org/2000/svg" width="1200" height="820" viewBox="0 0 1200 820" role="img" aria-label="Документированные решения">
  <defs>
    <linearGradient id="bg" x1="0" x2="1" y1="0" y2="1"><stop offset="0%" stop-color="#eef5fb"/><stop offset="100%" stop-color="#eff7f3"/></linearGradient>
    <linearGradient id="head" x1="0" x2="1"><stop offset="0%" stop-color="#153f92"/><stop offset="100%" stop-color="#19a56f"/></linearGradient>
    <filter id="shadow" x="-20%" y="-20%" width="140%" height="140%"><feDropShadow dx="0" dy="12" stdDeviation="18" flood-color="#9eb4c9" flood-opacity="0.28"/></filter>
    <style>
      text{font-family:Inter,Segoe UI,Arial,sans-serif; fill:#16315f}
      .title{font-size:38px; font-weight:800}
      .sub{font-size:18px; fill:#5c7395}
      .cardTitle{font-size:22px; font-weight:800}
      .cardDesc{font-size:14px; fill:#5d7391}
      .brand{font-size:14px; font-weight:700; letter-spacing:2px; fill:#d9f1e6}
    </style>
  </defs>
  <rect width="1200" height="820" fill="url(#bg)"/>
  <g opacity="0.28"><circle cx="130" cy="98" r="58" fill="#d9e8f5"/><circle cx="1088" cy="128" r="74" fill="#d9efe5"/><circle cx="1060" cy="696" r="86" fill="#dce9f8"/></g>
  <rect x="44" y="42" width="1112" height="736" rx="36" fill="#ffffff" filter="url(#shadow)"/>
  <rect x="88" y="82" width="1024" height="108" rx="24" fill="url(#head)"/>
  <text x="140" y="128" class="title" fill="#fff">Документированные решения</text>
  <text x="140" y="160" class="sub" fill="#e9f3ff"><tspan x="140" dy="0">Практические блоки контроля по бухгалтерским и налоговым</tspan><tspan x="140" dy="20">вопросам</tspan></text>
  <text x="1042" y="128" class="brand" text-anchor="end">ALL FINANCE</text>
  <g>
    <rect x="96" y="248" width="420" height="150" rx="26" fill="#ffffff" stroke="#e6eef7" filter="url(#shadow)"/>
    <circle cx="154" cy="302" r="26" fill="#f3f8fd"/>
    <g stroke="#214d9a" stroke-width="4" fill="none" stroke-linecap="round" stroke-linejoin="round"><rect x="138" y="282" width="28" height="38" rx="7"/><line x1="145" y1="293" x2="159" y2="293"/><line x1="145" y1="302" x2="159" y2="302"/><line x1="145" y1="311" x2="155" y2="311"/></g>
    <text x="208" y="304" class="cardTitle">Контроль учета</text>
    <text x="208" y="340" class="cardDesc"><tspan x="208" dy="0">Контроль регистров и</tspan><tspan x="208" dy="18">остатков</tspan></text>
    <text x="208" y="370" class="sub">ALL FINANCE</text>
  </g>
  <g>
    <rect x="616" y="248" width="420" height="150" rx="26" fill="#ffffff" stroke="#e6eef7" filter="url(#shadow)"/>
    <circle cx="674" cy="302" r="26" fill="#f3f8fd"/>
    <g stroke="#1aa36d" stroke-width="4" fill="none" stroke-linecap="round" stroke-linejoin="round"><circle cx="674" cy="300" r="18"/><path d="M662 304 L670 296 L678 302 L686 290"/></g>
    <text x="728" y="304" class="cardTitle">Налоговый анализ</text>
    <text x="728" y="340" class="cardDesc">Оценка расхождений и рисков</text>
    <text x="728" y="370" class="sub">ALL FINANCE</text>
  </g>
  <g>
    <rect x="96" y="474" width="420" height="150" rx="26" fill="#ffffff" stroke="#e6eef7" filter="url(#shadow)"/>
    <circle cx="154" cy="528" r="26" fill="#f3f8fd"/>
    <g stroke="#3f78c6" stroke-width="4" fill="none" stroke-linecap="round" stroke-linejoin="round"><rect x="139" y="511" width="30" height="30" rx="4"/><path d="M144 534 L151 527 L157 531 L165 521"/></g>
    <text x="208" y="530" class="cardTitle">Карта рисков</text>
    <text x="208" y="566" class="cardDesc"><tspan x="208" dy="0">Ключевые слабые точки</tspan><tspan x="208" dy="18">процессов</tspan></text>
    <text x="208" y="596" class="sub">ALL FINANCE</text>
  </g>
  <g>
    <rect x="616" y="474" width="420" height="150" rx="26" fill="#ffffff" stroke="#e6eef7" filter="url(#shadow)"/>
    <circle cx="674" cy="528" r="26" fill="#f3f8fd"/>
    <g stroke="#17a97a" stroke-width="4" fill="none" stroke-linecap="round" stroke-linejoin="round"><rect x="660" y="510" width="28" height="34" rx="6"/><line x1="667" y1="521" x2="680" y2="521"/><line x1="667" y1="530" x2="680" y2="530"/></g>
    <text x="728" y="530" class="cardTitle"><tspan x="728" dy="0">Письменное</tspan><tspan x="728" dy="22">заключение</tspan></text>
    <text x="728" y="566" class="cardDesc"><tspan x="728" dy="0">Четкие выводы для</tspan><tspan x="728" dy="18">руководства</tspan></text>
    <text x="728" y="596" class="sub">ALL FINANCE</text>
  </g>
  <g opacity="0.95"><rect x="158" y="676" width="884" height="60" rx="20" fill="#f7fafc" stroke="#e4edf7"/><text x="600" y="713" class="sub" text-anchor="middle">ALL FINANCE — professional financial services</text></g>
</svg>