<svg xmlns="http://www.w3.org/2000/svg" width="1200" height="800" viewBox="0 0 1200 800"><defs><linearGradient id="bg" x1="0" y1="0" x2="1" y2="1"><stop offset="0" stop-color="#edf4ff"/><stop offset="1" stop-color="#f3fcf8"/></linearGradient><linearGradient id="hero" x1="0" y1="0" x2="1" y2="0"><stop offset="0" stop-color="#123b8b"/><stop offset="1" stop-color="#16a66a"/></linearGradient><filter id="shadow"><feDropShadow dx="0" dy="16" stdDeviation="20" flood-color="#0f2f6c" flood-opacity="0.14"/></filter></defs><rect width="1200" height="800" rx="34" fill="url(#bg)"/><rect x="50" y="48" width="1100" height="104" rx="26" fill="url(#hero)" filter="url(#shadow)"/><text x="95" y="112" font-size="40" font-weight="800" fill="#fff">Hujjatli yechimlar</text><text x="95" y="142" font-size="20" fill="#ddf8e9">ALL FINANCE</text><g filter="url(#shadow)"><rect x="95" y="195" width="460" height="160" rx="26" fill="#fff"/><g transform="translate(119,233)"><rect x="0" y="0" width="54" height="68" rx="10" fill="#eff5ff" stroke="#123b8b" stroke-width="3"/><path d="M12 18h30M12 31h30M12 44h22" stroke="#123b8b" stroke-width="4" stroke-linecap="round"/></g><text x="215" y="265" font-size="30" font-weight="800" fill="#123b8b">Hisob nazorati</text><text x="215" y="303" font-size="20" fill="#5f738e">ALL FINANCE</text></g><g filter="url(#shadow)"><rect x="640" y="195" width="460" height="160" rx="26" fill="#fff"/><g transform="translate(664,233)"><circle cx="32" cy="32" r="26" fill="#eef9f2" stroke="#16a66a" stroke-width="4"/><path d="M18 38l11-12 8 8 11-13" fill="none" stroke="#123b8b" stroke-width="4" stroke-linecap="round" stroke-linejoin="round"/></g><text x="760" y="265" font-size="30" font-weight="800" fill="#123b8b">Soliq tahlili</text><text x="760" y="303" font-size="20" fill="#5f738e">ALL FINANCE</text></g><g filter="url(#shadow)"><rect x="95" y="455" width="460" height="160" rx="26" fill="#fff"/><g transform="translate(119,493)"><path d="M8 50V14h46v36Z" fill="#eff5ff" stroke="#123b8b" stroke-width="3"/><path d="M16 40l10-9 9 6 11-13" fill="none" stroke="#16a66a" stroke-width="4" stroke-linecap="round" stroke-linejoin="round"/></g><text x="215" y="525" font-size="30" font-weight="800" fill="#123b8b">Risk xaritasi</text><text x="215" y="563" font-size="20" fill="#5f738e">ALL FINANCE</text></g><g filter="url(#shadow)"><rect x="640" y="455" width="460" height="160" rx="26" fill="#fff"/><g transform="translate(664,493)"><rect x="5" y="8" width="50" height="48" rx="12" fill="#eef9f2" stroke="#16a66a" stroke-width="3"/><path d="M17 22h26M17 32h26M17 42h18" stroke="#123b8b" stroke-width="4" stroke-linecap="round"/></g><text x="760" y="525" font-size="30" font-weight="800" fill="#123b8b">Yozma xulosa</text><text x="760" y="563" font-size="20" fill="#5f738e">ALL FINANCE</text></g></svg>