<svg xmlns="http://www.w3.org/2000/svg" width="1200" height="700" viewBox="0 0 1200 700" fill="none">
<rect width="1200" height="700" rx="36" fill="#F4F8FC"/>
<path d="M80 120H1120" stroke="#D9E5F2" stroke-width="12" stroke-linecap="round"/>
<path d="M80 340H1120" stroke="#D9E5F2" stroke-width="12" stroke-linecap="round"/>
<path d="M80 560H1120" stroke="#D9E5F2" stroke-width="12" stroke-linecap="round"/>
<path d="M180 70V620" stroke="#DCE7F3" stroke-width="10" stroke-linecap="round"/>
<path d="M430 70V620" stroke="#DCE7F3" stroke-width="10" stroke-linecap="round"/>
<path d="M690 70V620" stroke="#DCE7F3" stroke-width="10" stroke-linecap="round"/>
<path d="M950 70V620" stroke="#DCE7F3" stroke-width="10" stroke-linecap="round"/>
<path d="M120 180C240 230 300 150 420 200C560 260 640 130 770 200C900 270 980 170 1080 220" stroke="#16A66A" stroke-width="16" stroke-linecap="round"/>
<path d="M90 470C220 400 320 500 450 430C560 370 700 500 810 430C930 350 1000 410 1110 360" stroke="#123B8B" stroke-width="16" stroke-linecap="round"/>
<circle cx="610" cy="320" r="34" fill="#123B8B"/>
<circle cx="610" cy="320" r="14" fill="#EAF1FF"/>
<path d="M610 376C654 376 690 340 690 296C690 252 654 216 610 216C566 216 530 252 530 296C530 340 566 376 610 376Z" fill="#123B8B" fill-opacity="0.18"/>
<rect x="418" y="430" width="384" height="150" rx="26" fill="white" stroke="#D6E0EE"/>
<text x="610" y="492" text-anchor="middle" fill="#123B8B" font-size="44" font-family="Arial" font-weight="700">Toshkent</text>
<text x="610" y="538" text-anchor="middle" fill="#50627F" font-size="28" font-family="Arial">M. Tarobiy 4-pr, 10-uy</text>
</svg>