<svg xmlns="http://www.w3.org/2000/svg" width="1600" height="320" viewBox="0 0 1600 320" fill="none">
<rect width="1600" height="320" fill="#ffffff"/>
<rect width="1600" height="106" y="0" fill="#2BA9E0" fill-opacity="0.18"/>
<rect width="1600" height="106" y="214" fill="#1EB56F" fill-opacity="0.16"/>
<rect width="1600" height="6" y="106" fill="#E84545" fill-opacity="0.22"/>
<rect width="1600" height="6" y="208" fill="#E84545" fill-opacity="0.22"/>
<g opacity="0.16">
<path d="M180 72c0 23-18 41-41 41 18-6 30-23 30-41s-12-35-30-41c23 0 41 18 41 41Z" fill="#ffffff"/>
<circle cx="152" cy="72" r="25" fill="#ffffff"/>
<circle cx="152" cy="72" r="19" fill="#2BA9E0" fill-opacity="0.18"/>
<g fill="#ffffff">
<circle cx="205" cy="38" r="6"/><circle cx="223" cy="48" r="6"/><circle cx="241" cy="38" r="6"/>
<circle cx="205" cy="58" r="6"/><circle cx="223" cy="68" r="6"/><circle cx="241" cy="58" r="6"/>
<circle cx="205" cy="78" r="6"/><circle cx="223" cy="88" r="6"/><circle cx="241" cy="78" r="6"/>
<circle cx="205" cy="98" r="6"/><circle cx="223" cy="108" r="6"/><circle cx="241" cy="98" r="6"/>
<circle cx="205" cy="118" r="6"/><circle cx="223" cy="128" r="6"/><circle cx="241" cy="118" r="6"/>
</g>
</g>
</svg>