<svg xmlns="http://www.w3.org/2000/svg" viewBox="0 0 24 24"><path fill="#0aa763" d="M12 2a10 10 0 0 1 8.7 14.9L22 22l-5.2-1.3A10 10 0 1 1 12 2zm0 2a8 8 0 0 0-6.8 12.2l.3.5-.8 2.6 2.7-.7.5.3A8 8 0 1 0 12 4zm4.5 10.2c.2.1.3.2.3.4 0 .2-.1 1-.6 1.4-.4.4-1 .7-1.7.7-1 0-2.2-.4-3.6-1.2-2.3-1.4-3.8-3.8-4-4.1-.2-.3-.9-1.2-.9-2.3 0-1.1.6-1.7.8-1.9.2-.2.5-.3.7-.3h.5c.2 0 .4 0 .5.4l.7 1.7c.1.2.1.4 0 .6l-.3.5c-.1.2-.3.4-.4.5-.1.1-.3.3-.1.6.2.3.8 1.3 1.8 2.1 1.2 1.1 2.2 1.4 2.5 1.6.3.2.5.1.7-.1l.9-1c.2-.2.4-.3.7-.2l1.5.7z"/></svg>