<svg xmlns="http://www.w3.org/2000/svg" viewBox="0 0 64 64"><defs><clipPath id="c"><circle cx="32" cy="32" r="30"/></clipPath></defs><circle cx="32" cy="32" r="31" fill="#e5eef9"/><g clip-path="url(#c)"><rect width="64" height="64" fill="#fff"/><rect width="64" height="20" y="0" fill="#1eb1e7"/><rect width="64" height="20" y="22" fill="#fff"/><rect width="64" height="20" y="44" fill="#31b56a"/><rect width="64" height="2" y="20" fill="#d1273f"/><rect width="64" height="2" y="42" fill="#d1273f"/><path d="M14 8a6 6 0 1 0 0 12 7.2 7.2 0 1 1 0-12Z" fill="#fff"/><g fill="#fff"><circle cx="24" cy="11" r="1.2"/><circle cx="28" cy="11" r="1.2"/><circle cx="32" cy="11" r="1.2"/><circle cx="36" cy="11" r="1.2"/><circle cx="40" cy="11" r="1.2"/><circle cx="26" cy="15" r="1.2"/><circle cx="30" cy="15" r="1.2"/><circle cx="34" cy="15" r="1.2"/><circle cx="38" cy="15" r="1.2"/><circle cx="28" cy="19" r="1.2"/><circle cx="32" cy="19" r="1.2"/><circle cx="36" cy="19" r="1.2"/></g></g><circle cx="32" cy="32" r="30" fill="none" stroke="#d6e2f2" stroke-width="2"/></svg>