<svg xmlns="http://www.w3.org/2000/svg" viewBox="0 0 64 64"><defs><clipPath id="c"><circle cx="32" cy="32" r="30"/></clipPath></defs><circle cx="32" cy="32" r="31" fill="#e5eef9"/><g clip-path="url(#c)"><rect width="64" height="64" fill="#d52029"/><path d="M16 10l2 6h6l-5 3.8 2 6.2-5-3.8-5 3.8 2-6.2-5-3.8h6z" fill="#ffd34d"/><path d="M29 11l1.1 3h3.2l-2.6 1.8 1 3-2.7-1.7-2.6 1.7 1-3-2.6-1.8H28zM34 18l1 2.8h3l-2.4 1.8.9 2.8-2.5-1.6-2.5 1.6.9-2.8-2.4-1.8h3zM33 28l1 2.8h3l-2.4 1.8.9 2.8-2.5-1.6-2.5 1.6.9-2.8-2.4-1.8h3zM27 34l1.1 3h3.2l-2.6 1.8 1 3-2.7-1.7-2.6 1.7 1-3-2.6-1.8H26z" fill="#ffd34d"/></g><circle cx="32" cy="32" r="30" fill="none" stroke="#d6e2f2" stroke-width="2"/></svg>